<svg
            width="21"
            height="22"
            viewBox="0 0 21 22"
            fill="none"
            xmlns="http://www.w3.org/2000/svg"
          >
            <path
              fill-rule="evenodd"
              clip-rule="evenodd"
              d="M10.5 2.25C5.66751 2.25 1.75 6.16751 1.75 11C1.75 15.8325 5.66751 19.75 10.5 19.75C15.3325 19.75 19.25 15.8325 19.25 11C19.25 8.67936 18.3281 6.45376 16.6872 4.81282C15.0462 3.17187 12.8206 2.25 10.5 2.25ZM10.5 18C6.63401 18 3.5 14.866 3.5 11C3.5 7.13401 6.63401 4 10.5 4C14.366 4 17.5 7.13401 17.5 11C17.5 12.8565 16.7625 14.637 15.4497 15.9497C14.137 17.2625 12.3565 18 10.5 18ZM6.125 11C6.125 8.58375 8.08375 6.625 10.5 6.625C12.9162 6.625 14.875 8.58375 14.875 11C14.875 13.4162 12.9162 15.375 10.5 15.375C8.08375 15.375 6.125 13.4162 6.125 11Z"
              fill="#1890FF"
            />
          </svg>