<svg width="22" height="22" viewBox="0 0 22 22" fill="none" xmlns="http://www.w3.org/2000/svg">
<path d="M11.6052 2.3083L11.5777 2.37247L8.91938 8.54163H6.30688C5.68354 8.54163 5.08771 8.66997 4.54688 8.89913L6.15104 5.06747L6.18771 4.9758L6.25188 4.82913C6.27021 4.77413 6.28854 4.71913 6.31604 4.6733C7.51688 1.8958 8.87354 1.2633 11.6052 2.3083Z" stroke="#919EAB" stroke-width="1.375" stroke-linecap="round" stroke-linejoin="round"/>
<path d="M16.5466 8.72444C16.1341 8.5961 15.6941 8.5411 15.2541 8.5411H8.91992L11.5783 2.37194L11.6058 2.30777C11.7433 2.3536 11.8716 2.41777 12.0091 2.47277L14.0349 3.32527C15.1624 3.79277 15.9508 4.2786 16.4274 4.86527C16.5191 4.97527 16.5924 5.0761 16.6566 5.19527C16.7391 5.3236 16.8033 5.45194 16.8399 5.58944C16.8766 5.67194 16.9041 5.75444 16.9224 5.82777C17.1699 6.59777 17.0233 7.54194 16.5466 8.72444Z" stroke="#919EAB" stroke-width="1.375" stroke-linecap="round" stroke-linejoin="round"/>
<path d="M19.7279 13.0152V14.8027C19.7279 14.986 19.7188 15.1693 19.7096 15.3527C19.5354 18.5518 17.7479 20.1652 14.3562 20.1652H7.20625C6.98625 20.1652 6.76625 20.1468 6.55542 20.1193C3.64042 19.9268 2.08208 18.3685 1.88958 15.4535C1.86208 15.2427 1.84375 15.0227 1.84375 14.8027V13.0152C1.84375 11.1727 2.96208 9.58684 4.55708 8.89934C5.10708 8.67017 5.69375 8.54184 6.31708 8.54184H15.2637C15.7129 8.54184 16.1529 8.60601 16.5562 8.72517C18.3804 9.28434 19.7279 10.9893 19.7279 13.0152Z" stroke="#919EAB" stroke-width="1.375" stroke-linecap="round" stroke-linejoin="round"/>
<path d="M6.15148 5.06674L4.54732 8.89841C2.95232 9.58591 1.83398 11.1717 1.83398 13.0142V10.3284C1.83398 7.72508 3.68565 5.55258 6.15148 5.06674Z" stroke="#919EAB" stroke-width="1.375" stroke-linecap="round" stroke-linejoin="round"/>
<path d="M19.7264 10.3287V13.0145C19.7264 10.9978 18.388 9.28367 16.5547 8.73367C17.0314 7.54201 17.1689 6.60701 16.9397 5.82784C16.9214 5.74534 16.8939 5.66284 16.8572 5.58951C18.5622 6.46951 19.7264 8.27534 19.7264 10.3287Z" stroke="#919EAB" stroke-width="1.375" stroke-linecap="round" stroke-linejoin="round"/>
</svg>
