<svg width="22" height="22" viewBox="0 0 22 22" fill="none" xmlns="http://www.w3.org/2000/svg">
<path d="M7.94922 13.1357C7.94922 14.3182 8.85672 15.2715 9.98422 15.2715H12.2851C13.2659 15.2715 14.0634 14.4373 14.0634 13.4107C14.0634 12.2923 13.5776 11.8982 12.8534 11.6415L9.15922 10.3582C8.43505 10.1015 7.94922 9.70735 7.94922 8.58901C7.94922 7.56235 8.74672 6.72818 9.72755 6.72818H12.0284C13.1559 6.72818 14.0634 7.68151 14.0634 8.86401" stroke="#919EAB" stroke-width="1.375" stroke-linecap="round" stroke-linejoin="round"/>
<path d="M11 5.5V16.5" stroke="#919EAB" stroke-width="1.375" stroke-linecap="round" stroke-linejoin="round"/>
<path d="M13.7507 20.1667H8.25065C3.66732 20.1667 1.83398 18.3333 1.83398 13.75V8.25001C1.83398 3.66668 3.66732 1.83334 8.25065 1.83334H13.7507C18.334 1.83334 20.1673 3.66668 20.1673 8.25001V13.75C20.1673 18.3333 18.334 20.1667 13.7507 20.1667Z" stroke="#919EAB" stroke-width="1.375" stroke-linecap="round" stroke-linejoin="round"/>
</svg>
