<svg width="22" height="22" viewBox="0 0 22 22" fill="none" xmlns="http://www.w3.org/2000/svg">
<path d="M8.25065 20.1666H13.7507C18.334 20.1666 20.1673 18.3333 20.1673 13.75V8.24998C20.1673 3.66665 18.334 1.83331 13.7507 1.83331H8.25065C3.66732 1.83331 1.83398 3.66665 1.83398 8.24998V13.75C1.83398 18.3333 3.66732 20.1666 8.25065 20.1666Z" stroke="#919EAB" stroke-width="1.375" stroke-linecap="round" stroke-linejoin="round"/>
<path d="M16.5 7.10415V13.2916C16.5 12.2833 15.675 11.4583 14.6667 11.4583H7.33333C6.325 11.4583 5.5 12.2833 5.5 13.2916V7.10415C5.5 6.09581 6.325 5.27081 7.33333 5.27081H14.6667C15.675 5.27081 16.5 6.09581 16.5 7.10415Z" stroke="#919EAB" stroke-width="1.375" stroke-linecap="round" stroke-linejoin="round"/>
<path d="M17.4167 14.4375H16.5" stroke="#919EAB" stroke-width="1.375" stroke-linecap="round" stroke-linejoin="round"/>
<path d="M5.50065 14.4375H4.58398" stroke="#919EAB" stroke-width="1.375" stroke-linecap="round" stroke-linejoin="round"/>
<path d="M16.5 12.8333V10.0833C16.5 9.075 15.675 8.25 14.6667 8.25H7.33333C6.325 8.25 5.5 9.075 5.5 10.0833V12.8333" stroke="#919EAB" stroke-width="1.375" stroke-linecap="round" stroke-linejoin="round"/>
<path d="M16.5 13.2916V14.4375H13.2917C13.2917 15.7025 12.265 16.7291 11 16.7291C9.735 16.7291 8.70833 15.7025 8.70833 14.4375H5.5V13.2916C5.5 12.2833 6.325 11.4583 7.33333 11.4583H14.6667C15.675 11.4583 16.5 12.2833 16.5 13.2916Z" stroke="#919EAB" stroke-width="1.375" stroke-linecap="round" stroke-linejoin="round"/>
</svg>
