<svg width="22" height="22" viewBox="0 0 22 22" fill="none" xmlns="http://www.w3.org/2000/svg">
<path d="M6.16982 18.0583C6.92148 17.2517 8.06732 17.3158 8.72732 18.1958L9.65315 19.4333C10.3957 20.4142 11.5965 20.4142 12.339 19.4333L13.2648 18.1958C13.9248 17.3158 15.0707 17.2517 15.8223 18.0583C17.454 19.8 18.7832 19.2225 18.7832 16.7842V6.45334C18.7923 2.75918 17.9307 1.83334 14.4657 1.83334H7.53565C4.07065 1.83334 3.20898 2.75918 3.20898 6.45334V16.775C3.20898 19.2225 4.54732 19.7908 6.16982 18.0583Z" stroke="#919EAB" stroke-width="1.5" stroke-linecap="round" stroke-linejoin="round"/>
<path d="M7.42205 10.0833H7.43028" stroke="#919EAB" stroke-width="1.5" stroke-linecap="round" stroke-linejoin="round"/>
<path d="M9.99023 10.0833H15.0319" stroke="#919EAB" stroke-width="1.5" stroke-linecap="round" stroke-linejoin="round"/>
<path d="M7.42205 6.41668H7.43028" stroke="#919EAB" stroke-width="1.5" stroke-linecap="round" stroke-linejoin="round"/>
<path d="M9.99023 6.41666H15.0319" stroke="#919EAB" stroke-width="1.5" stroke-linecap="round" stroke-linejoin="round"/>
</svg>
