<svg width="22" height="22" viewBox="0 0 22 22" fill="none" xmlns="http://www.w3.org/2000/svg">
<path d="M9.66158 20.1116C9.45075 20.1116 9.24907 20.02 9.11158 19.8367L8.18573 18.5992C7.99323 18.3425 7.73659 18.1958 7.46159 18.1775C7.17742 18.1591 6.91156 18.2875 6.69156 18.5167C5.36239 19.9375 4.35407 19.8183 3.86824 19.635C3.37324 19.4425 2.53906 18.81 2.53906 16.775V6.45332C2.53906 2.38332 3.7124 1.14581 7.55323 1.14581H14.4741C18.3149 1.14581 19.4882 2.38332 19.4882 6.45332V10.3583C19.4882 10.7341 19.1766 11.0458 18.8007 11.0458C18.4249 11.0458 18.1132 10.7341 18.1132 10.3583V6.45332C18.1132 3.14415 17.5357 2.52081 14.4741 2.52081H7.55323C4.49156 2.52081 3.91406 3.14415 3.91406 6.45332V16.775C3.91406 17.7375 4.1524 18.2691 4.3724 18.3516C4.5374 18.4158 4.98658 18.3241 5.68325 17.5816C6.18742 17.05 6.84741 16.7658 7.53491 16.8025C8.21324 16.8391 8.85491 17.1967 9.28574 17.7742L10.2207 19.0116C10.4499 19.3141 10.3857 19.745 10.0832 19.9742C9.94574 20.075 9.79908 20.1116 9.66158 20.1116Z" fill="#919EAB"/>
<path d="M14.6673 7.10419H7.33398C6.95815 7.10419 6.64648 6.79252 6.64648 6.41669C6.64648 6.04085 6.95815 5.72919 7.33398 5.72919H14.6673C15.0432 5.72919 15.3548 6.04085 15.3548 6.41669C15.3548 6.79252 15.0432 7.10419 14.6673 7.10419Z" fill="#919EAB"/>
<path d="M13.75 10.7708H8.25C7.87417 10.7708 7.5625 10.4591 7.5625 10.0833C7.5625 9.70748 7.87417 9.39581 8.25 9.39581H13.75C14.1258 9.39581 14.4375 9.70748 14.4375 10.0833C14.4375 10.4591 14.1258 10.7708 13.75 10.7708Z" fill="#919EAB"/>
<path d="M13.5859 19.965C13.2376 19.965 12.9076 19.8366 12.6692 19.5983C12.3851 19.3141 12.2567 18.9016 12.3209 18.4708L12.4951 17.2333C12.5409 16.9125 12.7334 16.5275 12.9626 16.2983L16.2076 13.0533C16.6476 12.6133 17.0784 12.3841 17.5459 12.3383C18.1142 12.2833 18.6826 12.5216 19.2142 13.0533C19.7459 13.585 19.9842 14.1441 19.9292 14.7216C19.8834 15.18 19.6451 15.62 19.2142 16.06L15.9692 19.305C15.7401 19.5341 15.3551 19.7266 15.0342 19.7725L13.7967 19.9467C13.7234 19.9558 13.6592 19.965 13.5859 19.965ZM17.7017 13.7042C17.6926 13.7042 17.6834 13.7042 17.6742 13.7042C17.5459 13.7133 17.3717 13.8325 17.1792 14.025L13.9342 17.27C13.9067 17.2975 13.8609 17.3892 13.8609 17.4258L13.6959 18.5717L14.8417 18.4066C14.8784 18.3975 14.9701 18.3516 14.9976 18.3241L18.2426 15.0792C18.4351 14.8775 18.5542 14.7125 18.5634 14.5841C18.5817 14.4008 18.3984 14.1808 18.2426 14.025C18.0959 13.8783 17.8851 13.7042 17.7017 13.7042Z" fill="#919EAB"/>
<path d="M18.2592 16.7291C18.1951 16.7291 18.1309 16.7199 18.0759 16.7016C16.8659 16.3624 15.9034 15.3999 15.5642 14.1899C15.4634 13.8233 15.6742 13.4474 16.0409 13.3374C16.4076 13.2366 16.7834 13.4474 16.8842 13.8141C17.0951 14.5658 17.6909 15.1616 18.4426 15.3724C18.8092 15.4733 19.0201 15.8583 18.9192 16.2249C18.8367 16.5274 18.5617 16.7291 18.2592 16.7291Z" fill="#919EAB"/>
</svg>
