<svg width="22" height="22" viewBox="0 0 22 22" fill="none" xmlns="http://www.w3.org/2000/svg">
<path d="M8.24967 20.1654H13.7497C18.333 20.1654 20.1663 18.332 20.1663 13.7487V8.2487C20.1663 3.66536 18.333 1.83203 13.7497 1.83203H8.24967C3.66634 1.83203 1.83301 3.66536 1.83301 8.2487V13.7487C1.83301 18.332 3.66634 20.1654 8.24967 20.1654Z" stroke="#919EAB" stroke-width="1.5" stroke-linecap="round" stroke-linejoin="round"/>
<path d="M14.2725 16.9578V13.3828" stroke="#919EAB" stroke-width="1.5" stroke-miterlimit="10" stroke-linecap="round" stroke-linejoin="round"/>
<path d="M14.2725 6.83047V5.04297" stroke="#919EAB" stroke-width="1.5" stroke-miterlimit="10" stroke-linecap="round" stroke-linejoin="round"/>
<path d="M14.273 11.5948C15.5893 11.5948 16.6563 10.5277 16.6563 9.21146C16.6563 7.89518 15.5893 6.82812 14.273 6.82812C12.9567 6.82812 11.8896 7.89518 11.8896 9.21146C11.8896 10.5277 12.9567 11.5948 14.273 11.5948Z" stroke="#919EAB" stroke-width="1.5" stroke-miterlimit="10" stroke-linecap="round" stroke-linejoin="round"/>
<path d="M7.72754 16.9594V15.1719" stroke="#919EAB" stroke-width="1.5" stroke-miterlimit="10" stroke-linecap="round" stroke-linejoin="round"/>
<path d="M7.72754 8.61797V5.04297" stroke="#919EAB" stroke-width="1.5" stroke-miterlimit="10" stroke-linecap="round" stroke-linejoin="round"/>
<path d="M7.72708 15.169C9.04336 15.169 10.1104 14.102 10.1104 12.7857C10.1104 11.4694 9.04336 10.4023 7.72708 10.4023C6.4108 10.4023 5.34375 11.4694 5.34375 12.7857C5.34375 14.102 6.4108 15.169 7.72708 15.169Z" stroke="#919EAB" stroke-width="1.5" stroke-miterlimit="10" stroke-linecap="round" stroke-linejoin="round"/>
</svg>
