<svg width="22" height="22" viewBox="0 0 22 22" fill="none" xmlns="http://www.w3.org/2000/svg">
<path d="M10.7623 16.2728H16.189C16.1065 16.3461 16.024 16.4103 15.9415 16.4836L12.0273 19.417C10.7348 20.3795 8.62649 20.3795 7.32482 19.417L3.40149 16.4836C2.53982 15.842 1.83398 14.4211 1.83398 13.3486V6.55613C1.83398 5.4378 2.68649 4.2003 3.73149 3.80613L8.29649 2.09197C9.04815 1.8078 10.2948 1.8078 11.0465 2.09197L15.6023 3.80613C16.4732 4.13613 17.2157 5.0528 17.4448 5.9878H10.7531C10.5515 5.9878 10.3681 5.99698 10.194 5.99698C8.49815 6.09781 8.05815 6.71196 8.05815 8.64613V13.6236C8.06731 15.732 8.60816 16.2728 10.7623 16.2728Z" stroke="#919EAB" stroke-width="1.375" stroke-linecap="round" stroke-linejoin="round"/>
<path d="M8.06641 10.2852H20.1664" stroke="#919EAB" stroke-width="1.375" stroke-miterlimit="10" stroke-linecap="round" stroke-linejoin="round"/>
<path d="M20.1664 8.6343V13.7218C20.1481 15.7568 19.5889 16.2609 17.4714 16.2609H10.7614C8.60724 16.2609 8.06641 15.7201 8.06641 13.6026V8.62512C8.06641 6.70012 8.50641 6.08594 10.2022 5.97594C10.3764 5.97594 10.5597 5.9668 10.7614 5.9668H17.4714C19.6256 5.97596 20.1664 6.50763 20.1664 8.6343Z" stroke="#919EAB" stroke-width="1.375" stroke-linecap="round" stroke-linejoin="round"/>
<path d="M10.377 13.9876H11.5961" stroke="#919EAB" stroke-width="1.375" stroke-miterlimit="10" stroke-linecap="round" stroke-linejoin="round"/>
<path d="M13.5215 13.9876H16.519" stroke="#919EAB" stroke-width="1.375" stroke-miterlimit="10" stroke-linecap="round" stroke-linejoin="round"/>
</svg>
