<svg width="22" height="22" viewBox="0 0 22 22" fill="none" xmlns="http://www.w3.org/2000/svg">
<path d="M11.1464 9.96418C11.0547 9.95501 10.9447 9.95501 10.8439 9.96418C8.66219 9.89084 6.92969 8.10334 6.92969 5.90334C6.92969 3.65751 8.74469 1.83334 10.9997 1.83334C13.2455 1.83334 15.0697 3.65751 15.0697 5.90334C15.0605 8.10334 13.328 9.89084 11.1464 9.96418Z" stroke="#919EAB" stroke-width="1.375" stroke-linecap="round" stroke-linejoin="round"/>
<path d="M6.56414 13.3467C4.34581 14.8317 4.34581 17.2517 6.56414 18.7275C9.08497 20.4142 13.2191 20.4142 15.74 18.7275C17.9583 17.2425 17.9583 14.8225 15.74 13.3467C13.2283 11.6692 9.09414 11.6692 6.56414 13.3467Z" stroke="#919EAB" stroke-width="1.375" stroke-linecap="round" stroke-linejoin="round"/>
</svg>
