<svg width="22" height="22" viewBox="0 0 22 22" fill="none" xmlns="http://www.w3.org/2000/svg">
<path d="M8.39635 9.96418C8.30469 9.95501 8.19469 9.95501 8.09385 9.96418C5.91219 9.89084 4.17969 8.10334 4.17969 5.90334C4.17969 3.65751 5.99469 1.83334 8.24969 1.83334C10.4955 1.83334 12.3197 3.65751 12.3197 5.90334C12.3105 8.10334 10.578 9.89084 8.39635 9.96418Z" stroke="#919EAB" stroke-width="1.375" stroke-linecap="round" stroke-linejoin="round"/>
<path d="M15.041 3.66666C16.8194 3.66666 18.2494 5.10582 18.2494 6.87499C18.2494 8.60749 16.8744 10.0192 15.1602 10.0833C15.0869 10.0742 15.0044 10.0742 14.9219 10.0833" stroke="#919EAB" stroke-width="1.375" stroke-linecap="round" stroke-linejoin="round"/>
<path d="M3.81414 13.3467C1.59581 14.8317 1.59581 17.2517 3.81414 18.7275C6.33497 20.4142 10.4691 20.4142 12.99 18.7275C15.2083 17.2425 15.2083 14.8225 12.99 13.3467C10.4783 11.6692 6.34414 11.6692 3.81414 13.3467Z" stroke="#919EAB" stroke-width="1.375" stroke-linecap="round" stroke-linejoin="round"/>
<path d="M16.8125 18.3333C17.4725 18.1958 18.0958 17.93 18.6092 17.5358C20.0392 16.4633 20.0392 14.6942 18.6092 13.6217C18.105 13.2367 17.4908 12.98 16.84 12.8333" stroke="#919EAB" stroke-width="1.375" stroke-linecap="round" stroke-linejoin="round"/>
</svg>
